<?xml version="1.0" encoding="UTF-8"?>
<svg id="Layer_1" data-name="Layer 1" xmlns="http://www.w3.org/2000/svg" viewBox="0 0 234.72 79.17">
  <defs>
    <style>
      .cls-1 {
        fill: #25c389;
      }

      .cls-1, .cls-2, .cls-3, .cls-4 {
        fill-rule: evenodd;
      }

      .cls-5 {
        fill: #4d4d4d;
      }

      .cls-2 {
        fill: #ffb901;
      }

      .cls-3 {
        fill: #1691bd;
      }

      .cls-4 {
        fill: #de6262;
      }
    </style>
  </defs>
  <path class="cls-5" d="M40.19,24.04c.47.81.99,1.8,1.57,2.98.58,1.17,1.16,2.41,1.76,3.71.6,1.28,1.18,2.59,1.76,3.94.6,1.32,1.14,2.55,1.63,3.68.49-1.13,1.02-2.36,1.6-3.68.58-1.34,1.16-2.66,1.76-3.94.6-1.3,1.18-2.54,1.76-3.71.58-1.17,1.1-2.17,1.57-2.98h3.65c.19,1.62.37,3.35.54,5.18.17,1.81.32,3.68.45,5.6.15,1.9.28,3.82.38,5.76.13,1.92.23,3.8.32,5.63h-3.97c-.09-2.58-.19-5.24-.32-7.97-.11-2.73-.28-5.38-.51-7.94-.23.49-.51,1.08-.83,1.76s-.66,1.43-1.02,2.24c-.36.79-.74,1.61-1.12,2.46-.36.85-.73,1.69-1.09,2.5-.34.79-.66,1.54-.96,2.24-.3.68-.55,1.27-.77,1.76h-3.01c-.21-.49-.47-1.09-.77-1.79-.3-.7-.63-1.45-.99-2.24-.34-.81-.7-1.64-1.09-2.5-.36-.85-.73-1.67-1.09-2.46-.36-.79-.7-1.53-1.02-2.21-.32-.7-.6-1.29-.83-1.76-.23,2.56-.42,5.21-.54,7.94-.11,2.73-.2,5.39-.29,7.97h-3.97c.09-1.83.18-3.73.29-5.7.13-1.96.26-3.9.38-5.82.15-1.94.31-3.82.48-5.63.17-1.81.35-3.49.54-5.02h3.74ZM63.16,37.93c0-1.47.21-2.76.64-3.87.45-1.11,1.03-2.03,1.76-2.75.73-.75,1.56-1.3,2.5-1.66.94-.38,1.9-.58,2.88-.58,2.3,0,4.1.71,5.38,2.14,1.3,1.43,1.95,3.56,1.95,6.4,0,.21-.01.46-.03.74,0,.26-.01.49-.03.7h-11.04c.11,1.34.58,2.39,1.41,3.14.85.73,2.08,1.09,3.68,1.09.94,0,1.79-.09,2.56-.26.79-.17,1.41-.35,1.86-.54l.51,3.17c-.21.11-.51.22-.9.35-.36.11-.79.2-1.28.29-.47.11-.98.19-1.54.26-.55.06-1.12.1-1.7.1-1.47,0-2.75-.21-3.84-.64-1.09-.45-1.98-1.06-2.69-1.82-.7-.79-1.23-1.71-1.57-2.75-.34-1.07-.51-2.23-.51-3.49ZM74.39,36.2c0-.53-.07-1.03-.22-1.5-.15-.49-.37-.91-.67-1.25-.28-.36-.63-.64-1.06-.83-.41-.21-.9-.32-1.47-.32s-1.12.12-1.57.35c-.45.21-.83.5-1.15.86-.3.36-.53.78-.7,1.25-.17.47-.29.95-.35,1.44h7.2ZM82.81,25.07l3.87-.64v5.06h5.95v3.23h-5.95v6.82c0,1.34.21,2.3.64,2.88s1.15.86,2.18.86c.7,0,1.32-.07,1.86-.22.55-.15.99-.29,1.31-.42l.64,3.07c-.45.19-1.03.38-1.76.58-.73.21-1.58.32-2.56.32-1.19,0-2.2-.16-3.01-.48-.79-.32-1.42-.78-1.89-1.38-.47-.62-.8-1.35-.99-2.21-.19-.87-.29-1.87-.29-2.98v-14.5ZM106.56,32.97c-.32-.11-.77-.21-1.34-.32-.55-.13-1.21-.19-1.95-.19-.43,0-.89.04-1.38.13-.47.09-.8.16-.99.22v13.41h-3.87v-15.94c.75-.28,1.67-.53,2.78-.77,1.13-.26,2.38-.38,3.74-.38.26,0,.55.02.9.06.34.02.68.06,1.02.13.34.04.67.11.99.19.32.06.58.13.77.19l-.67,3.26ZM125.7,37.84c0,1.32-.19,2.53-.58,3.62-.38,1.09-.93,2.02-1.63,2.78-.7.77-1.56,1.37-2.56,1.79-.98.43-2.07.64-3.26.64s-2.28-.21-3.26-.64c-.98-.43-1.82-1.02-2.53-1.79-.7-.77-1.26-1.7-1.66-2.78-.38-1.09-.58-2.29-.58-3.62s.19-2.52.58-3.58c.41-1.09.96-2.02,1.66-2.78.73-.77,1.58-1.35,2.56-1.76.98-.43,2.06-.64,3.23-.64s2.25.21,3.23.64c1,.41,1.86.99,2.56,1.76.7.77,1.25,1.7,1.63,2.78.41,1.07.61,2.26.61,3.58ZM121.73,37.84c0-1.66-.36-2.98-1.09-3.94-.7-.98-1.7-1.47-2.98-1.47s-2.28.49-3.01,1.47c-.7.96-1.06,2.27-1.06,3.94s.35,3.02,1.06,4c.73.98,1.73,1.47,3.01,1.47s2.27-.49,2.98-1.47c.73-.98,1.09-2.31,1.09-4ZM136.16,46.54c-1.15-.02-2.11-.15-2.88-.38-.75-.23-1.34-.57-1.79-.99-.45-.45-.77-.99-.96-1.63-.17-.66-.26-1.41-.26-2.24v-19.26l3.87-.64v19.17c0,.47.03.86.1,1.18.08.32.22.6.42.83.19.21.45.38.77.51.34.11.77.19,1.28.26l-.54,3.2ZM144.38,46.22h-3.87v-16.74h3.87v16.74ZM144.79,24.59c0,.73-.24,1.3-.7,1.73-.47.43-1.02.64-1.66.64s-1.23-.21-1.7-.64c-.47-.43-.7-1-.7-1.73s.23-1.33.7-1.76c.47-.43,1.03-.64,1.7-.64s1.19.21,1.66.64c.47.43.7,1.01.7,1.76ZM149.03,37.87c0-1.24.19-2.39.58-3.46.38-1.09.93-2.03,1.63-2.82.72-.79,1.6-1.41,2.62-1.86,1.02-.45,2.18-.67,3.46-.67,1.58,0,3.07.29,4.48.86l-.83,3.17c-.45-.19-.96-.35-1.54-.48-.55-.13-1.15-.19-1.79-.19-1.51,0-2.67.48-3.46,1.44-.79.94-1.18,2.27-1.18,4s.37,2.99,1.12,3.97c.75.96,2,1.44,3.78,1.44.66,0,1.31-.06,1.95-.19.64-.13,1.19-.29,1.66-.48l.54,3.2c-.43.21-1.08.41-1.95.58-.85.17-1.74.26-2.66.26-1.43,0-2.68-.21-3.74-.64-1.05-.45-1.92-1.06-2.62-1.82-.68-.79-1.19-1.72-1.54-2.78-.34-1.09-.51-2.26-.51-3.52ZM169.88,43.44c1.02,0,1.77-.12,2.24-.35.47-.26.7-.68.7-1.28,0-.55-.26-1.01-.77-1.38-.49-.36-1.31-.76-2.46-1.18-.7-.26-1.35-.52-1.95-.8-.58-.3-1.08-.64-1.5-1.02-.43-.38-.77-.84-1.02-1.38-.23-.55-.35-1.23-.35-2.02,0-1.54.57-2.74,1.7-3.62,1.13-.9,2.67-1.34,4.61-1.34.98,0,1.92.1,2.82.29.9.17,1.57.34,2.02.51l-.7,3.14c-.43-.19-.97-.36-1.63-.51-.66-.17-1.43-.26-2.3-.26-.79,0-1.43.14-1.92.42-.49.26-.74.66-.74,1.22,0,.28.04.52.13.74.11.21.28.42.51.61.23.17.54.35.93.54.38.17.85.35,1.41.54.92.34,1.7.68,2.34,1.02.64.32,1.16.69,1.57,1.12.43.41.74.87.93,1.41.19.53.29,1.17.29,1.92,0,1.6-.6,2.82-1.79,3.65-1.17.81-2.86,1.22-5.06,1.22-1.47,0-2.66-.13-3.55-.38-.9-.23-1.53-.43-1.89-.58l.67-3.23c.58.23,1.26.46,2.05.67.81.21,1.73.32,2.75.32Z"/>
  <path class="cls-2" d="M204.37,30.22h5.33v5.33h-5.33v-5.33Z"/>
  <path class="cls-1" d="M193.7,30.22h5.33v5.33h-5.33v-5.33Z"/>
  <path class="cls-3" d="M199.03,35.55h5.33v5.33h-5.33v-5.33Z"/>
  <path class="cls-2" d="M193.7,40.89h5.33v5.33h-5.33v-5.33Z"/>
  <path class="cls-4" d="M204.37,40.89h5.33v5.33h-5.33v-5.33Z"/>
</svg>